<?xml version="1.0" encoding="utf-8"?><svg xmlns="http://www.w3.org/2000/svg" xmlns:xlink="http://www.w3.org/1999/xlink"><symbol viewBox="0 0 284.929 284.929" id="arrow-down"><path d="M282.082 76.511l-14.274-14.273c-1.902-1.906-4.093-2.856-6.57-2.856-2.471 0-4.661.95-6.563 2.856L142.466 174.441 30.262 62.241c-1.903-1.906-4.093-2.856-6.567-2.856-2.475 0-4.665.95-6.567 2.856L2.856 76.515C.95 78.417 0 80.607 0 83.082c0 2.473.953 4.663 2.856 6.565l133.043 133.046c1.902 1.903 4.093 2.854 6.567 2.854s4.661-.951 6.562-2.854L282.082 89.647c1.902-1.903 2.847-4.093 2.847-6.565 0-2.475-.945-4.665-2.847-6.571z"/></symbol><symbol preserveAspectRatio="xMidYMid" viewBox="0 0 66 30" id="artlemon"><path d="M64.593 15.974l-2.388-3.308v3.308h-1.456v-5.718h1.498l2.286 3.146v-3.146h1.465v5.718h-1.405zm-8.402.104c-1.728 0-3.024-1.218-3.024-2.958 0-1.741 1.296-2.958 3.024-2.958 1.727 0 3.014 1.217 3.014 2.958 0 1.74-1.287 2.958-3.014 2.958zm0-4.612c-.94 0-1.542.719-1.542 1.654 0 .925.602 1.654 1.542 1.654.93 0 1.532-.729 1.532-1.654 0-.935-.602-1.654-1.532-1.654zm-6.024.788l-1.431 3.72h-.643l-1.423-3.72v3.72h-1.456v-5.718h2.023l1.177 3.103 1.186-3.103h2.024v5.718h-1.457v-3.72zm-.118-5.996h-1.457V1.826h-1.583V.54h4.615v1.286h-1.575v4.432zm-6.122 0l-.948-1.921h-.746v1.921h-1.455V.54h2.828c1.253 0 1.964.84 1.964 1.902 0 .995-.602 1.526-1.126 1.716l1.151 2.1h-1.668zm-.542-4.432h-1.152V3.05h1.152c.381 0 .703-.213.703-.615 0-.386-.322-.609-.703-.609zm-5.868 3.609H35.29l-.28.823h-1.651L35.485.54h1.829l2.133 5.718h-1.651l-.279-.823zm-1.118-3.439l-.72 2.153h1.44l-.72-2.153zM14.748 29.997H4.332c-2.303 0-4.183-1.812-4.336-4.11V14.965c0-.234.006-.474.017-.709C.414 6.347 6.912-.004 14.821-.004h10.416c2.303 0 4.183 1.812 4.335 4.11v10.859c0 .258-.006.516-.016.773-.402 7.909-6.9 14.259-14.808 14.259zM27.314 4.196c-.103-1.078-1.004-1.913-2.077-1.913H14.821c-6.695 0-12.209 5.311-12.552 12.091-.01.192-.015.394-.015.591v10.832c.104 1.079 1.004 1.914 2.078 1.914h10.416c6.695 0 12.209-5.311 12.552-12.091.009-.208.014-.431.014-.655V4.196zm8.103 10.493h2.269v1.285h-3.725v-5.718h1.456v4.433zm8.078-3.147h-2.684v.892h2.625v1.286h-2.625v.969h2.684v1.285h-4.14v-5.718h4.14v1.286z" class="abcls-1"/></symbol><symbol viewBox="0 0 512 512" id="basket"><path d="M456.348 66.783h-116.87V16.696c0-9.22-7.475-16.696-16.696-16.696H189.217c-9.22 0-16.696 7.475-16.696 16.696v50.087H55.652c-9.22 0-16.696 7.475-16.696 16.696v66.783c0 9.22 7.475 16.696 16.696 16.696h16.696v328.348c0 9.22 7.475 16.696 16.696 16.696h333.913c9.22 0 16.696-7.475 16.696-16.696V166.957h16.696c9.22 0 16.696-7.475 16.696-16.696V83.478c-.002-9.22-7.477-16.695-16.697-16.695zM205.913 33.391h100.174v33.391H205.913V33.391zm200.348 445.218H105.739V166.957h300.522v311.652zm33.391-345.044H72.348v-33.391h367.304v33.391z"/><path d="M256.004 200.348c-9.22 0-16.696 7.475-16.696 16.696v211.478c0 9.22 7.475 16.696 16.696 16.696 9.22 0 16.696-7.475 16.696-16.696V217.043c0-9.22-7.475-16.695-16.696-16.695zM155.831 200.348c-9.22 0-16.696 7.475-16.696 16.696v211.478c0 9.22 7.475 16.696 16.696 16.696 9.22 0 16.696-7.475 16.696-16.696V217.043c-.001-9.22-7.476-16.695-16.696-16.695zM356.178 200.348c-9.22 0-16.696 7.475-16.696 16.696v211.478c0 9.22 7.475 16.696 16.696 16.696s16.696-7.475 16.696-16.696V217.043c0-9.22-7.475-16.695-16.696-16.695z"/></symbol><symbol viewBox="0 0 22 22" id="block"><path class="adcls-1" d="M0 0h6v6H0V0zm8 0h6v6H8V0zm8 0h6v6h-6V0zM0 8h6v6H0V8zm8 0h6v6H8V8zm8 0h6v6h-6V8zM0 16h6v6H0v-6zm8 0h6v6H8v-6zm8 0h6v6h-6v-6z"/></symbol><symbol id="close" viewBox="-199.135 294.23 252.778 252.811"><style>.aest0{fill:#6a726e}</style><path class="aest0" d="M53.643 315.381L32.528 294.23-72.744 399.494l-105.26-105.26-21.131 21.143 105.256 105.255-105.255 105.255 21.129 21.149L-72.744 441.76 32.528 547.04l21.114-21.158-105.25-105.25z"/></symbol><symbol viewBox="0 0 512 512" id="contact-icon-1"><path d="M256.002 418.133c-15.662 0-28.404 12.741-28.404 28.403s12.742 28.403 28.404 28.403 28.403-12.741 28.403-28.403-12.742-28.403-28.403-28.403zm0 37.136c-4.816 0-8.734-3.918-8.734-8.733s3.918-8.733 8.734-8.733c4.815 0 8.733 3.918 8.733 8.733-.002 4.815-3.92 8.733-8.733 8.733zM302.587 40.447h-50.403c-5.734 0-10.382 4.648-10.382 10.382s4.649 10.382 10.382 10.382h50.403c5.734 0 10.382-4.648 10.382-10.382s-4.648-10.382-10.382-10.382z"/><circle cx="220.312" cy="51.085" r="10.899"/><path d="M377.101 0H134.899c-18.077 0-32.784 14.707-32.784 32.784v446.431c0 18.077 14.707 32.784 32.784 32.784H377.1c18.077 0 32.784-14.707 32.784-32.784V32.784C409.885 14.707 395.178 0 377.101 0zm10.928 479.216c0 6.026-4.902 10.928-10.928 10.928H134.899c-6.026 0-10.928-4.902-10.928-10.928V32.784c0-6.026 4.902-10.928 10.928-10.928H377.1c6.026 0 10.928 4.902 10.928 10.928v446.432z"/><path d="M274.418 205.204c-4.269-4.266-11.186-4.266-15.456 0l-52.494 52.495c-4.267 4.267-4.267 11.187.001 15.455 2.134 2.134 4.931 3.202 7.727 3.202s5.594-1.068 7.727-3.201l52.494-52.495c4.268-4.268 4.268-11.188.001-15.456zM305.532 235.626c-4.268-4.266-11.186-4.266-15.456 0l-20.912 20.912c-4.266 4.267-4.266 11.187.001 15.456 2.134 2.133 4.931 3.201 7.727 3.201s5.593-1.068 7.727-3.201l20.912-20.912c4.269-4.268 4.269-11.188.001-15.456z"/><path d="M355.366 80.892h-198.73c-5.432 0-9.835 4.403-9.835 9.835v301.275c0 5.432 4.403 9.835 9.835 9.835h198.73c5.432 0 9.835-4.403 9.835-9.835V90.727c0-5.431-4.403-9.835-9.835-9.835zm-9.836 301.275H166.47V100.563h179.06v281.604z"/></symbol><symbol viewBox="0 0 54.468 54.467" id="contact-icon-2"><path d="M29.88 4.963c-13.558 0-24.588 11.049-24.588 24.63 0 13.579 11.03 24.629 24.588 24.629 13.559 0 24.588-11.05 24.588-24.629 0-13.58-11.03-24.63-24.588-24.63zm0 46.773c-12.189 0-22.106-9.934-22.106-22.144 0-12.209 9.917-22.144 22.106-22.144 12.189 0 22.106 9.934 22.106 22.144 0 12.211-9.917 22.144-22.106 22.144zm13.556-20.951h-12.29V16.016a1.228 1.228 0 1 0-2.458 0v16.001c0 .68.55 1.229 1.229 1.229h13.518c.68 0 1.229-.551 1.229-1.229a1.23 1.23 0 0 0-1.228-1.232zM15.703 2.588a1.233 1.233 0 0 0 .578-1.642 1.226 1.226 0 0 0-1.639-.579C7.898 3.603 2.86 9.292.076 16.818a1.234 1.234 0 0 0 1.153 1.658c.499 0 .97-.308 1.152-.803C4.939 10.758 9.545 5.541 15.703 2.588z"/></symbol><symbol viewBox="0 0 60.943 60.943" id="contact-icon-3"><path d="M30.472 0C18.763 0 9.236 9.542 9.236 21.271c0 3.916 1.073 7.746 3.003 10.872.037.099.136.354 13.788 25.605 1.116 2.061 2.688 3.195 4.428 3.195 1.739 0 3.31-1.135 4.427-3.195C47.75 33.961 48.518 32.5 48.512 32.5a21.245 21.245 0 0 0 3.195-11.229C51.709 9.542 42.182 0 30.472 0zm15.886 31.316c-.283.562-9.044 16.768-13.638 25.259-1.312 2.423-3.221 2.423-4.533 0-3.694-6.832-13.353-24.716-13.752-25.515a18.795 18.795 0 0 1-2.741-9.79c0-10.37 8.424-18.809 18.778-18.809S49.25 10.9 49.25 21.271c.002 3.524-.979 6.959-2.892 10.045zM30.472 10.547c-6.484 0-11.76 5.283-11.76 11.779 0 6.495 5.275 11.779 11.76 11.779s11.759-5.285 11.759-11.779c0-6.496-5.274-11.779-11.759-11.779zm0 21.098c-5.128 0-9.302-4.182-9.302-9.317 0-5.138 4.174-9.318 9.302-9.318 5.129 0 9.302 4.181 9.302 9.318 0 5.135-4.172 9.317-9.302 9.317z"/></symbol><symbol viewBox="-44.999 145.002 503.989 503.997" id="contact-icon-4"><path d="M256.842 648.999c9.835 0 18.531-5.984 22.153-15.244l178.309-456.022c3.5-8.954 1.469-18.757-5.302-25.584l-.061-.063-.004-.004-.044-.041-.043-.043c-4.55-4.512-10.488-6.997-16.72-6.997-3.003 0-5.986.571-8.867 1.698L-29.754 325.006c-10.33 4.038-16.384 14.152-15.065 25.166 1.322 11.013 9.595 19.408 20.586 20.889l222.877 30.058a4.962 4.962 0 0 1 4.237 4.235l30.058 222.878c1.482 10.993 9.877 19.266 20.89 20.586.992.121 2.006.181 3.013.181zm-49.958-265.326l-2.065-.599c-6.303-1.003-150.462-20.561-226.508-30.857-3.422-.465-4.11-3.167-4.247-4.308-.137-1.15-.105-3.946 3.119-5.196L403.826 175.89l17.798-6.959-13.513 13.513-199.556 199.557-1.671 1.672zm44.9 242.009c-10.295-76.036-29.854-220.195-30.856-226.498l-.598-2.065 1.671-1.671 199.555-199.556 13.513-13.513-6.959 17.798L261.283 626.83c-1.07 2.747-3.232 3.155-4.427 3.155-.248 0-.501-.016-.774-.05-1.13-.134-3.842-.821-4.298-4.253z"/></symbol><symbol viewBox="-59.325 157.8 464.851 478.2" id="dislike"><path class="ajst0" d="M395.675 290.8c.7-14-2.8-33.9-22.7-51.9 1.3-9.2 1.3-23.7-6.8-38.3-10.6-19.1-31.5-32.1-62.1-38.6-13-2.8-28.6-4.2-46.5-4.2-10.4 0-21.6.5-33.5 1.4-65.7-1.3-129.7 6.8-133.3 7.3l-23.5 2.8c-6.8-4.8-15.1-7.6-24-7.6h-61c-22.9 0-41.6 18.6-41.6 41.6v162.5c0 22.9 18.6 41.6 41.6 41.6h61c7.2 0 13.9-1.8 19.8-5 4.2 9.2 10.4 19.7 19.6 29.4.5.5 1 1 1.6 1.4 31.3 24.1 68.3 110.9 81.5 146.3-1.4 11-2.7 34.8 8.4 47.7 4.9 5.7 11.8 8.8 19.3 8.8 7.8 0 34.3-1.8 50.9-24.7 15.8-21.8 16.6-54.4 2.6-97-11.8-35.8-12.9-51.7-12.5-58.1 5.4 1.2 10.7 2.3 15.7 3.2h.1c.9.2 22.9 5.1 49.2 6.3 37.4 1.8 64.4-4.7 80.3-19.2 21.7-19.8 19.2-45.3 12.7-61.5 5.6-7.3 12.4-19.2 13-34.4.6-13.8-4.1-27.2-13.9-39.7 1.9-5.1 3.7-12 4.1-20.1zm-413.4-102h61c8 0 14.6 6.5 14.6 14.6v162.5c0 8-6.5 14.6-14.6 14.6h-61c-8 0-14.6-6.5-14.6-14.6V203.3c0-8 6.5-14.6 14.6-14.6v.1zm396.2 160.8c-.5 13.3-11 23.2-11.1 23.3-5 4.5-6.1 11.8-2.4 17.4 1.3 2.1 12.8 21.7-3.4 36.5-19.1 17.4-74.1 13.3-104.8 6.6-.4-.1-.9-.2-1.3-.3-5.5-.9-11.3-2.1-17.4-3.5-6.4-2.3-15.2-2-21.8 3.9-13.3 11.8-11.9 38.6 4.9 89.5 11 33.4 11.4 58.6 1.2 72.7-8.6 11.9-22.9 13.4-28.2 13.5-2.4-4.1-3-17.8-1.3-29 .4-2.3.2-4.6-.6-6.7-1.9-5.2-45.8-125.3-90.7-160.9-11.8-12.7-16.8-27.6-18.6-34.3 1.2-3.9 1.9-8.1 1.9-12.4V203.3c0-3-.3-6-.9-8.8l10.1-1.2h.1c.7-.1 65.7-8.5 130-7.1h1.4c30.2-2.4 54.8-1.7 72.9 2.2 22.6 4.8 37.5 13.4 44.2 25.4 7 12.5 2.7 25.7 2.7 25.8-2 5.6-.1 11.8 4.6 15.4 13.2 9.9 19.5 21.5 18.8 34.6-.5 9.6-4.6 16.6-4.6 16.7-3.2 5.2-2.4 11.9 1.8 16.3 8.7 9 12.9 18.1 12.5 27z"/></symbol><symbol viewBox="0 0 488.877 488.877" id="edit"><path d="M488.3 100.567c-.7-1.6-1.1-3.6-1.5-5.6-1.1-5.3-2.3-11.2-5-17.2-15-34.2-39.8-58.5-73.7-72.2-7.3-3-14.6-3.9-21-4.6l-1.6-.2c-7.4-.9-18.4.1-28.7 10.6-43.7 43.9-88.2 88.4-131.3 131.5l-31.6 31.5-11.5 11.5-2.7 2.7c-1.3 1.3-4 4.1-11.8 12-7 7.1-6.9 18.5.2 25.5 7.1 7 18.5 6.9 25.5-.2 7.9-8 10.6-10.8 11.9-12.1l2.4-2.4 11.5-11.5 31.6-31.6c43.1-43.1 87.6-87.6 131.4-131.6l.1-.1h.3c4.6.6 9 1.1 11.9 2.3 25.3 10.2 43 27.7 54.3 53.3 1.1 2.6 1.9 6.2 2.7 10.1.2 1 .4 1.9.6 2.9l-.4.4c-72 71.8-146.9 146.7-229.2 229.1-.4.4-.4.4-1.1.6-27.6 5.8-55.6 11.7-82.6 17.4l-4.3.9.8-3.7c5.8-27.5 11.8-55.9 17.9-83.8 2.1-9.7-4-19.3-13.7-21.4-9.7-2.1-19.3 4-21.4 13.7-6.1 28-12.1 56.5-17.9 84.1l-3.3 15.6c-2 9.6.7 19.3 7.3 25.9 5.2 5.2 12.2 8 19.7 8 2.1 0 4.2-.2 6.3-.7l16.3-3.4c27.1-5.7 55-11.6 82.5-17.4 7.6-1.6 13.9-5 19.2-10.4 82.2-82.4 157.2-157.3 229.1-229.1 6.7-6.7 10.4-14.7 11.3-24.3.2-2 0-4.1-.5-6.1z"/><path d="M387.7 263.767c-9.9 0-18 8.1-18 18v162.7c0 4.4-3.5 7.9-7.9 7.9H43.9c-4.4 0-7.9-3.5-7.9-7.9v-317.9c0-4.4 3.5-7.9 7.9-7.9h169.6c9.9 0 18-8.1 18-18s-8.1-18-18-18H43.9c-24.2 0-43.9 19.7-43.9 43.9v317.9c0 24.2 19.7 43.9 43.9 43.9h317.9c24.2 0 43.9-19.7 43.9-43.9v-162.7c0-9.9-8.1-18-18-18z"/></symbol><symbol preserveAspectRatio="xMidYMid" viewBox="0 0 20 20" id="ellipse"><circle fill="red" cx="10" cy="10" r="10"/></symbol><symbol viewBox="0 0 10 12" id="enter"><path class="amcls-1" d="M5 6.389c1.85 0 2.51-1.778 2.69-3.239C7.9 1.35 7.02-.003 5-.003S2.1 1.351 2.31 3.15c.18 1.46.84 3.239 2.69 3.239zm5 4.234a12.063 12.063 0 0 0-.19-1.7 3.382 3.382 0 0 0-.9-2.107 5.3 5.3 0 0 0-1.22-.491 4.686 4.686 0 0 1-.54-.234 3.015 3.015 0 0 1-4.3 0 4.686 4.686 0 0 1-.54.234 5.3 5.3 0 0 0-1.22.491 3.382 3.382 0 0 0-.9 2.107 12.063 12.063 0 0 0-.19 1.7c-.02.438.21.5.59.633a11.677 11.677 0 0 0 1.47.389 12.433 12.433 0 0 0 5.88 0 11.677 11.677 0 0 0 1.47-.389c.38-.133.6-.195.59-.633z"/></symbol><symbol viewBox="0 0 8 16" id="facebook"><path class="ancls-1" d="M7.678 7.99H5.271v7.99H1.7V7.99H.005V5.17H1.7V3.34c0-1.3.667-3.35 3.6-3.35L7.942 0v2.74H6.025a.7.7 0 0 0-.757.77v1.66h2.718zm0 0"/></symbol><symbol viewBox="0 0 20 20" id="instagram"><path class="aocls-1" d="M10 1.8c2.67 0 2.987.01 4.041.06a5.364 5.364 0 0 1 1.856.34 3.319 3.319 0 0 1 1.9 1.9 5.511 5.511 0 0 1 .344 1.85c.048 1.06.058 1.38.058 4.05s-.01 2.98-.058 4.04a5.511 5.511 0 0 1-.344 1.85 3.319 3.319 0 0 1-1.9 1.9 5.364 5.364 0 0 1-1.856.34c-1.054.05-1.371.06-4.041.06s-2.986-.01-4.04-.06a5.373 5.373 0 0 1-1.858-.34 3.321 3.321 0 0 1-1.9-1.9 5.511 5.511 0 0 1-.344-1.85C1.81 12.98 1.8 12.66 1.8 10s.01-2.99.058-4.05a5.511 5.511 0 0 1 .344-1.85 3.321 3.321 0 0 1 1.9-1.9 5.373 5.373 0 0 1 1.858-.34C7.014 1.81 7.331 1.8 10 1.8m0-1.81c-2.716 0-3.056.02-4.123.06A7.284 7.284 0 0 0 3.45.52a4.885 4.885 0 0 0-1.771 1.15A5 5 0 0 0 .525 3.44 7.419 7.419 0 0 0 .06 5.87C.012 6.94 0 7.28 0 10s.012 3.05.06 4.12a7.419 7.419 0 0 0 .465 2.43 5.1 5.1 0 0 0 2.925 2.92 7.284 7.284 0 0 0 2.427.47c1.067.04 1.407.05 4.123.05s3.056-.01 4.124-.05a7.3 7.3 0 0 0 2.427-.47 5.1 5.1 0 0 0 2.924-2.92 7.419 7.419 0 0 0 .465-2.43c.049-1.07.06-1.41.06-4.12s-.011-3.06-.06-4.13a7.419 7.419 0 0 0-.465-2.43 5.015 5.015 0 0 0-1.153-1.77A4.9 4.9 0 0 0 16.551.52a7.3 7.3 0 0 0-2.427-.47C13.056.01 12.716-.01 10-.01zm0 4.87A5.135 5.135 0 1 0 15.135 10 5.137 5.137 0 0 0 10 4.86zm0 8.47A3.335 3.335 0 1 1 13.333 10 3.331 3.331 0 0 1 10 13.33zm6.538-8.67a1.2 1.2 0 1 1-1.2-1.2 1.2 1.2 0 0 1 1.199 1.2z"/></symbol><symbol viewBox="0 0 478.2 478.2" id="like"><path d="M457.575 325.1c9.8-12.5 14.5-25.9 13.9-39.7-.6-15.2-7.4-27.1-13-34.4 6.5-16.2 9-41.7-12.7-61.5-15.9-14.5-42.9-21-80.3-19.2-26.3 1.2-48.3 6.1-49.2 6.3h-.1c-5 .9-10.3 2-15.7 3.2-.4-6.4.7-22.3 12.5-58.1 14-42.6 13.2-75.2-2.6-97-16.6-22.9-43.1-24.7-50.9-24.7-7.5 0-14.4 3.1-19.3 8.8-11.1 12.9-9.8 36.7-8.4 47.7-13.2 35.4-50.2 122.2-81.5 146.3-.6.4-1.1.9-1.6 1.4-9.2 9.7-15.4 20.2-19.6 29.4-5.9-3.2-12.6-5-19.8-5h-61c-23 0-41.6 18.7-41.6 41.6v162.5c0 23 18.7 41.6 41.6 41.6h61c8.9 0 17.2-2.8 24-7.6l23.5 2.8c3.6.5 67.6 8.6 133.3 7.3 11.9.9 23.1 1.4 33.5 1.4 17.9 0 33.5-1.4 46.5-4.2 30.6-6.5 51.5-19.5 62.1-38.6 8.1-14.6 8.1-29.1 6.8-38.3 19.9-18 23.4-37.9 22.7-51.9-.4-8.1-2.2-15-4.1-20.1zm-409.3 122.2c-8.1 0-14.6-6.6-14.6-14.6V270.1c0-8.1 6.6-14.6 14.6-14.6h61c8.1 0 14.6 6.6 14.6 14.6v162.5c0 8.1-6.6 14.6-14.6 14.6h-61v.1zm383.7-133.9c-4.2 4.4-5 11.1-1.8 16.3 0 .1 4.1 7.1 4.6 16.7.7 13.1-5.6 24.7-18.8 34.6-4.7 3.6-6.6 9.8-4.6 15.4 0 .1 4.3 13.3-2.7 25.8-6.7 12-21.6 20.6-44.2 25.4-18.1 3.9-42.7 4.6-72.9 2.2h-1.4c-64.3 1.4-129.3-7-130-7.1h-.1l-10.1-1.2c.6-2.8.9-5.8.9-8.8V270.1c0-4.3-.7-8.5-1.9-12.4 1.8-6.7 6.8-21.6 18.6-34.3 44.9-35.6 88.8-155.7 90.7-160.9.8-2.1 1-4.4.6-6.7-1.7-11.2-1.1-24.9 1.3-29 5.3.1 19.6 1.6 28.2 13.5 10.2 14.1 9.8 39.3-1.2 72.7-16.8 50.9-18.2 77.7-4.9 89.5 6.6 5.9 15.4 6.2 21.8 3.9 6.1-1.4 11.9-2.6 17.4-3.5.4-.1.9-.2 1.3-.3 30.7-6.7 85.7-10.8 104.8 6.6 16.2 14.8 4.7 34.4 3.4 36.5-3.7 5.6-2.6 12.9 2.4 17.4.1.1 10.6 10 11.1 23.3.4 8.9-3.8 18-12.5 27z"/></symbol><symbol viewBox="0 0 22 22" id="list"><path class="aqcls-1" d="M8 16h14v6H8v-6zm-8 0h6v6H0v-6zm8-8h14v6H8V8zM0 8h6v6H0V8zm8-8h14v6H8V0zM0 0h6v6H0V0z"/></symbol><symbol viewBox="0 0 480.56 480.56" id="phone"><path d="M365.354 317.9c-15.7-15.5-35.3-15.5-50.9 0-11.9 11.8-23.8 23.6-35.5 35.6-3.2 3.3-5.9 4-9.8 1.8-7.7-4.2-15.9-7.6-23.3-12.2-34.5-21.7-63.4-49.6-89-81-12.7-15.6-24-32.3-31.9-51.1-1.6-3.8-1.3-6.3 1.8-9.4 11.9-11.5 23.5-23.3 35.2-35.1 16.3-16.4 16.3-35.6-.1-52.1-9.3-9.4-18.6-18.6-27.9-28-9.6-9.6-19.1-19.3-28.8-28.8-15.7-15.3-35.3-15.3-50.9.1-12 11.8-23.5 23.9-35.7 35.5-11.3 10.7-17 23.8-18.2 39.1-1.9 24.9 4.2 48.4 12.8 71.3 17.6 47.4 44.4 89.5 76.9 128.1 43.9 52.2 96.3 93.5 157.6 123.3 27.6 13.4 56.2 23.7 87.3 25.4 21.4 1.2 40-4.2 54.9-20.9 10.2-11.4 21.7-21.8 32.5-32.7 16-16.2 16.1-35.8.2-51.8-19-19.1-38.1-38.1-57.2-57.1zM346.254 238.2l36.9-6.3c-5.8-33.9-21.8-64.6-46.1-89-25.7-25.7-58.2-41.9-94-46.9l-5.2 37.1c27.7 3.9 52.9 16.4 72.8 36.3 18.8 18.8 31.1 42.6 35.6 68.8zM403.954 77.8c-42.6-42.6-96.5-69.5-156-77.8l-5.2 37.1c51.4 7.2 98 30.5 134.8 67.2 34.9 34.9 57.8 79 66.1 127.5l36.9-6.3c-9.7-56.2-36.2-107.2-76.6-147.7z"/></symbol><symbol viewBox="-565.902 712.844 40.226 80.549" id="plant-1"><path d="M-525.678 740.268c-.94 3.079-1.322 6.49-2.922 9.176-5.664 9.507-3.283 19.945-4.133 30.015-.315 3.735-.773 7.524-1.818 11.098-.374 1.279-2.672 2.836-4.091 2.836-11.641-.001-18.602-4.898-22.257-15.523-4.438-12.901-5.776-26.469-4.595-39.898.477-5.425 4.845-10.584 7.76-15.682 1.16-2.029 3.344-3.443 4.77-5.354 3.116-4.18 9.712-5.498 13.692-2.348 8.182 6.474 13.713 14.36 13.594 25.68z"/></symbol><symbol viewBox="-265.988 308.217 63.585 179.038" id="plant-2"><path d="M-258.318 471.023c2.146-3.381 3.753-7.32 6.553-10.025 5.489-5.303 7.077-11.352 5.531-19.999l-11.988 11.634-.898-.601c.947-1.532 1.712-3.223 2.877-4.566 2.837-3.268 6.114-6.185 8.694-9.632 1.191-1.591 1.166-4.093 1.901-7.01-8.682 1.232-15.705 2.198-20.34 8.768 1.708-4.994 4.88-7.62 10.212-8.541 8.463-1.461 11.018-4.991 9.475-12.017-.253-1.153-2.288-2.694-3.5-2.694-2.581-.001-5.247.647-7.72 1.491-2.315.791-4.427 2.178-7.056 2.588 4.43-2.659 8.785-5.457 13.314-7.935 3.563-1.949 4.853-4.601 4.259-8.612-2.504-16.891-5.369-33.752-7.109-50.726-1.14-11.122-2.845-22.743 3.48-33.146 3.712-6.105 7.573-12.363 16.363-11.741 5.839.413 12.235 4.826 13.698 10.52 1.253 4.878 3.523 8.636 7.516 11.865 8.095 6.546 10.838 15.817 10.644 25.758-.197 10.122-.174 20.481-2.36 30.265-2.136 9.562-7.763 18.032-15.801 24.262-4.35 3.371-10.715 1.243-13.266-4.001-3.112-6.398-3.243-13.117-2.425-19.983 1.589-13.35 2.981-26.725 4.778-40.046.726-5.386 2.13-10.702 3.54-15.966.988-3.688 1.179-7.806-2.269-9.235-2.64-1.094-7.041-.366-9.61 1.234-8.555 5.329-8.499 14.916-8.301 23.144.311 12.899 2.655 25.752 4.191 38.618.807 6.759 1.445 13.558 2.733 20.228.508 2.632 2.058 5.55 4.045 7.307 3.953 3.496 8.536 6.279 12.606 9.9l-14.874-6.217c-2.942 11.739 7.459 16.178 12.493 23.37l-1.048 1.004-10.218-6.898c-2.103 5.412-1.063 9.417 1.903 13.506 2.566 3.537 6.975 6.81 4.028 12.202l-6.984-9.998-1.346.253-4.302 37.906-1.873-.035c-2.569-8.212 1.777-16.894-.567-25.964l-9.396 10.714c-.531-.317-1.057-.633-1.583-.949z"/></symbol><symbol viewBox="-233.902 254.391 120.496 277.721" id="plant-3"><path d="M-228.52 428.479c6.995-3.435 13.922-7.019 21.014-10.24 3.436-1.56 5.232-3.48 4.95-7.521-1.064-15.266-2.098-30.539-2.757-45.826-.917-21.288-1.912-42.674 4.814-63.335 3.439-10.563 9.479-19.389 20.095-24.264 1.08-.496 2.178-1.616 2.634-2.71 8.089-19.439 25.186-23.579 43.316-17.76 6.781 2.177 13.729 4.396 18.246 10.572.963 1.317 2.227 2.847 2.287 4.322.366 9.034.711 18.092.385 27.117-.08 2.229-2.787 4.303-4.07 6.571-.839 1.483-2.181 3.49-1.758 4.742 2.097 6.202.179 11.983-1.898 17.452-2.463 6.486-6.2 12.476-9.081 18.819-1.67 3.676-2.723 7.63-4.091 11.446-.572 1.596-1.24 3.158-2.368 6.009-1.043-2.275-1.794-3.19-1.85-4.146-.477-8.258-.608-16.541-1.282-24.78-.63-7.704-1.451-15.427-2.851-23.02-.899-4.874-4.622-6.747-9.691-6.536-4.607.191-9.319.119-13.847-.648-5.472-.927-8.007-4.354-8.565-9.945-.484-4.852-2.493-5.934-6.436-3.219-5.876 4.046-10.317 8.895-11.983 16.4-5.544 24.982-5.404 50.134-3.403 75.42.617 7.793 1.492 15.619 1.318 23.41-.307 13.778 6.291 22.099 18.823 26.648 2.9 1.053 5.479 2.99 7.846 5.198-9.486-.327-16.994-5.352-25.67-10.742 0 5.108-.238 9.044.154 12.915.109 1.077 1.962 2.591 3.225 2.84 11.954 2.363 16.301 8.388 24.069 19.209-4.837 1.258-10.169-.702-12.218-5.455-2.566-5.953-7.533-7.926-12.889-9.742-5.646 9.663-3.56 18.061 4.695 22.121 5.494 2.702 11.663 10.411 12.543 16.143-3.764-3.353-7.53-6.705-11.292-10.061-1.492-1.331-2.893-2.781-4.482-3.982-2.512-1.9-5.006-1.06-5.311 1.73-.587 5.365-.888 10.918-.064 16.199.311 1.991 3.916 3.707 6.289 5.084 3.833 2.226 7.184 4.646 7.76 9.41-3.549-2.746-7.023-5.573-10.662-8.168-1.093-.779-3.231-1.664-3.856-1.176-1.068.834-1.816 2.708-1.835 4.156-.144 10.985-.079 21.972-.079 32.959l-1.278.019-2.448-22.109-1.205-.693-10.328 13.459-.61-.363c2.156-3.731 4.535-7.355 6.407-11.224 1.914-3.958 3.973-8.035 4.785-12.285.818-4.281.18-8.84.18-13.921l-20.708 10.059-1.165-1.582c2.878-2.717 5.57-5.676 8.691-8.077 2.614-2.011 5.794-3.269 8.607-5.045 4.324-2.729 6.265-7.375 4.56-12.036-.395-1.08-3.3-2.256-4.515-1.836-4.041 1.395-7.874 3.426-11.716 5.355-2.016 1.012-3.884 2.318-6.176 3.017 2.995-5.949 7.745-9.797 13.907-12.116 9.615-3.619 12.017-8.058 9.973-19.619l-31.789 13.706-.726-1.126c2.068-1.52 4.003-3.281 6.229-4.514 6.698-3.71 13.52-7.194 20.273-10.804 4.5-2.406 6.93-6.095 6.685-11.31-.245-5.234-1.802-6.488-6.891-5.117-6.251 1.684-12.428 3.641-18.645 5.451-.614.179-1.285.161-1.929.234l-.342-1.139z"/></symbol><symbol viewBox="-214.99 208.955 172.99 368.056" id="plant-4"><path d="M-42 282l-2.044 15.426c-4.051-1.416-8.044-2.332-11.56-4.163-4.261-2.218-8.159-5.152-12.143-7.879-6.45-4.415-12.733-8.705-21.062-9.418-6.996-.599-12.743-4.421-16.493-12.388-10.654 24.023-5.282 77.672-7.803 102.544-2.072 20.441-1.601 40.83.191 61.246.741 8.447 1.649 16.93 1.556 25.387-.145 13.237 6.506 20.992 18.266 25.505 3.056 1.173 5.84 3.054 8.378 5.322-9.522-.173-16.944-5.365-25.683-10.656 0 5.049-.237 8.973.151 12.836.109 1.087 1.945 2.687 3.167 2.871 11.787 1.775 17.829 10.631 24.443 19.096-5.007 1.437-10.454-.518-12.489-5.248-2.559-5.947-7.528-7.937-12.841-9.823-5.595 8.882-3.777 17.911 4.11 21.848 5.92 2.955 11.966 10.35 13.068 16.417-3.753-3.327-7.508-6.652-11.257-9.984-1.494-1.328-2.902-2.765-4.476-3.989-2.467-1.919-5.018-1.206-5.344 1.601-.623 5.356-.919 10.909-.116 16.192.304 1.995 3.88 3.718 6.229 5.124 3.785 2.265 7.273 4.596 7.807 9.429-3.49-2.7-6.944-5.503-10.555-8.087-1.106-.791-3.2-1.748-3.857-1.272-1.084.786-1.887 2.669-1.907 4.102-.15 10.983-.083 21.968-.083 32.953l-1.278.019-2.635-23.666-11.358 14.294-.556-.291c2.126-3.679 4.495-7.243 6.311-11.069 1.953-4.116 4.004-8.359 4.867-12.77.825-4.214.178-8.716.178-13.595l-20.666 10.126-1.198-1.535c2.831-2.716 5.478-5.667 8.551-8.073 2.463-1.928 5.428-3.224 8.198-4.749 3.694-2.033 5.499-4.939 5.347-9.334-.192-5.536-1.09-6.64-6.127-4.568-5.623 2.313-10.942 5.364-16.696 7.784 3.091-5.383 7.475-9.326 13.473-11.594 10.289-3.891 12.452-7.696 10.631-19.884l-32.062 13.774-.687-1.189c2.219-1.571 4.317-3.363 6.681-4.672 6.551-3.628 13.206-7.07 19.834-10.558 4.145-2.181 6.637-5.483 6.847-10.234.275-6.223-1.687-7.745-7.712-6.033-5.907 1.679-11.789 3.45-17.688 5.159-.622.18-1.287.211-2.409-.671 5.735-2.898 11.244-6.45 17.263-8.525 7.315-2.522 9.187-6.952 8.737-14.249-1.35-21.907-2.213-43.846-3.048-65.781-.234-6.144 3.605-54.002 3.565-56.608-.213-14.156-.275-28.317-.725-42.466-.339-10.684-6.071-19.493-11.111-28.408-.581-1.027-4.057-1.475-5.506-.774-7.031 3.398-14.119 6.834-20.643 11.09-10.783 7.034-22.002 10.336-34.985 8.101-6.556-1.128-13.463-1.968-19.638 2.768-2.787 2.137-4.845.283-4.322-3.567 1.251-9.227 4.429-17.525 10.38-24.967 3.974-4.97 6.878-10.841 9.942-16.483 7.146-13.158 16.282-23.707 32.484-24.759 10.804-.702 15.547 3.177 16.557 13.854.438 4.623 2.002 6.508 6.424 5.4 8.243-2.066 16.041 10.198 14.769 16.825-1.643 8.561.08 14.213 6.334 22.447-.311-3.495-.911-6.149-.62-8.701.143-1.259 1.93-2.331 2.973-3.488 1.059 1.359 2.711 2.596 3.021 4.108.354 1.727-.487 3.698-1.034 6.87 5.498-4.528 5.452-9.523 5.482-14.409.021-3.486-.449-6.976-.409-10.461.123-10.687 8.47-18.778 19.063-18.175 3.843.219 6.988-.492 9.266-3.555 10.865-14.607 23.147-8.118 29.783 3.857 4.915 8.87 8.089 18.202 7.661 28.539-.08 1.936.537 3.902.833 5.853C-42 266-42 274-42 282z"/></symbol><symbol viewBox="-210.902 172.818 181.917 438.587" id="plant-5"><path d="M-210.861 247.77c2.892-26.027 15.38-47.832 30.445-68.379 5.151-7.025 13.388-8.086 22.03-4.073 4.961 2.304 6.676 7.573 5.54 16.079-.226 1.691-.123 4.115.892 5.065.817.766 3.398.2 4.925-.43 12.715-5.249 25.886 3.065 25.795 16.767-.038 5.748-.897 11.589-2.204 17.196-.993 4.263-.526 7.82 1.807 11.314 2.352 3.522 4.72 7.034 7.081 10.551l1.512-.436c.131-1.674.373-3.347.375-5.021.017-12.999-.618-26.033.14-38.986.798-13.642-6.434-16.398-15.561-20.55-1.771-.806-3.781-1.086-6.825-1.922 1.673-3.03 2.704-6.019 4.658-8.168 2.791-3.069 8.629-1.584 13.462 2.946 1.081 1.013 2.048 2.149 3.303 3.477l3.071-3.695 3.122 2.545c3.565-6.671 9.046-9.864 17.137-9.125-.041 4.588-2.25 8.679-5.381 11.122-11.136 8.692-13.204 20.317-12.653 33.327.359 8.482-.078 16.995-.014 25.493.017 2.246.568 4.488 2.042 7.095.979-1.385 1.98-2.755 2.932-4.158 3.634-5.354 7.468-10.592 10.755-16.152 1.074-1.817 1.391-4.654.865-6.723-1.056-4.158-3.29-8.013-4.379-12.166-1.552-5.921-1.001-11.677 4.134-15.921 4.705-3.888 12.388-4.441 17.779-.92 9.477 6.191 19.055 11.986 29.721 16.098 9.956 3.837 13.92 13.02 14.87 22.632 1.043 10.554.145 21.301.049 31.964-.005.587-.404 1.17-1.059 2.945-.946-3.284-1.662-5.426-2.176-7.615-1.768-7.522-4.418-14.477-9.644-20.508-7.591-8.76-16.857-11.149-27.831-9.08-8.315 1.568-17.007 2.161-22.926 9.447-7.044 8.67-12.328 18.3-13.163 29.575-.835 11.271-.768 22.609-1.055 33.919-.04 1.59.151 3.185.217 4.442 5.376-1.569 10.424-4.392 15.356-4.202 10.547.407 21.096 2.012 31.524 3.818 7.852 1.36 10.471 7.903 6.825 15.157-6.278 12.489-23.979 18.801-37.024 12.611-5.562-2.639-10.448-6.703-15.814-10.233.25-.217-.207-.002-.201.2.557 18.921.999 37.848 1.8 56.759.429 10.129 1.617 20.223 2.224 30.346.946 15.791 1.455 31.612 2.632 47.384.48 6.431 3.18 12.334 9.053 15.864 5.535 3.326 11.382 6.127 16.979 9.355 3.151 1.817 6.074 4.031 8.7 6.723-12.317-2.108-23.393-6.817-33.078-14.764l-1.585.768c0 5.678-.176 11.368.177 17.024.057.922 2.38 2.285 3.774 2.452 15.847 1.896 23.696 13.967 32.643 25.014-6.852 1.65-13.944-.884-16.491-6.902-2.923-6.906-8.561-9.87-14.795-12.278-.995-.384-3.61.754-3.934 1.71-3.565 10.537-3.999 20.435 7.83 26.407 8.784 4.434 13.619 12.642 18.658 20.509l-.888 1c-2.186-1.621-4.491-3.107-6.536-4.89-5.149-4.488-10.114-9.188-15.285-13.649-2.945-2.54-5.691-1.828-7.01 1.676-2.686 7.139-1.751 14.428-.524 21.667.158.934 1.327 1.841 2.23 2.474a59.89 59.89 0 0 0 5.939 3.687c5.284 2.849 9.879 6.248 10.79 12.784-4.594-3.567-9.224-7.324-14.05-10.81-1.462-1.056-4.434-2.381-5.028-1.815-1.465 1.397-2.683 3.808-2.715 5.831-.223 13.983-.118 27.97-.118 41.957l-1.681.036-2.691-28.47-1.54-.756-14.161 18.442-.798-.515c3.061-5.227 5.61-10.852 9.302-15.588 5.663-7.265 6.309-15.553 6.407-24.065.035-3.035-.801-6.08-1.239-9.121-2.553 1.239-5.093 2.508-7.662 3.712-6.233 2.92-12.48 5.809-18.721 8.711l-1.438-1.945c3.724-3.52 7.251-7.286 11.24-10.474 2.693-2.152 5.977-3.613 9.106-5.161 6.144-3.041 9.314-7.657 8.907-14.732-.274-4.755-1.633-6.46-6.074-4.946-5.295 1.805-10.338 4.409-15.359 6.929-2.876 1.443-5.49 3.406-8.582 4.667 2.588-6.968 8.011-11.082 14.049-14.548a21.37 21.37 0 0 1 5.059-2.109c11.718-3.132 13.822-11.454 13.223-21.485-.166-2.782-1.453-3.705-3.854-2.699-4.75 1.99-9.381 4.261-14.108 6.307-8.197 3.549-16.431 7.015-24.649 10.516l-.877-1.341c2.451-1.873 4.714-4.087 7.386-5.558 9.038-4.977 18.275-9.591 27.33-14.539 7.097-3.878 9.725-9.567 8.283-17.001-.973-5.014-2.271-5.978-7.628-4.63-4.83 1.216-9.511 3.01-14.302 4.397-4.596 1.331-9.249 2.469-13.877 3.691l-.602-1.445c8.78-4.399 17.353-9.301 26.412-13.022 6.229-2.559 8.834-6.095 8.267-12.734-1.627-19.024-3.005-38.069-4.46-57.107-.785-10.272-1.717-20.538-2.231-30.824-.43-8.593-.332-17.212-.515-25.819-.023-1.099-.334-2.193-1.621-3.688-.821 1.603-1.708 3.176-2.452 4.814-6.709 14.775-24.761 21.378-38.466 13.808-2.839-1.568-5.376-3.951-7.546-6.406-4.19-4.739-3.514-9.329 1.512-13.214 4.481-3.463 8.958-6.931 13.45-10.379 10.925-8.384 22.479-14.985 37.024-12.408 0-12.333-.083-24.107.025-35.88.093-10.127-3.755-19.139-7.606-28.164-1.86-4.359-4.017-4.686-8.217-2.765-8.126 3.717-16.377 7.213-24.776 10.249-2.423.876-5.527-.22-8.321-.267-12.273-.209-24.659-1.399-36.114 4.845-1.636.892-3.838.795-5.792 1.039-3.001.374-4.782-.64-4.795-4.042-.004-1.238-.196-6.816-.073-7.921z"/></symbol><symbol viewBox="0 0 21 21" id="quote"><path class="axcls-1" fill-rule="evenodd" fill="#ddd" d="M4.87 9.687v1.772H9.1V21H0V9.689c0-3.6.99-6.273 2.94-7.946A7.527 7.527 0 0 1 8.01 0v5.11c-1.1-.002-3.14-.002-3.14 4.577zm15.04-4.579V0a7.545 7.545 0 0 0-5.07 1.743c-1.95 1.673-2.94 4.346-2.94 7.946V21H21v-9.539h-4.22V9.689c0-4.581 2.03-4.581 3.13-4.581z"/></symbol><symbol viewBox="0 0 30.143 30.143" id="reset"><path d="M20.034 2.357v3.824c3.482 1.798 5.869 5.427 5.869 9.619 0 5.98-4.848 10.83-10.828 10.83-5.982 0-10.832-4.85-10.832-10.83 0-3.844 2.012-7.215 5.029-9.136V2.689C4.245 4.918.731 9.945.731 15.801c0 7.921 6.42 14.342 14.34 14.342 7.924 0 14.342-6.421 14.342-14.342-.001-6.177-3.912-11.422-9.379-13.444z"/><path d="M14.795 17.652c1.576 0 1.736-.931 1.736-2.076V2.08c0-1.148-.16-2.08-1.736-2.08-1.57 0-1.732.932-1.732 2.08v13.496c-.001 1.146.162 2.076 1.732 2.076z"/></symbol><symbol viewBox="0 0 19 19" id="search"><path class="azcls-1" d="M18.77 17.644l-4.63-4.622a7.864 7.864 0 1 0-1.11 1.124l4.62 4.619a.792.792 0 0 0 1.12-1.121zM1.58 7.973a6.39 6.39 0 1 1 6.39 6.391 6.39 6.39 0 0 1-6.39-6.391z"/></symbol><symbol viewBox="0 0 55 55" id="user"><path d="M55 27.5C55 12.337 42.663 0 27.5 0S0 12.337 0 27.5c0 8.009 3.444 15.228 8.926 20.258l-.026.023.892.752c.058.049.121.089.179.137.474.393.965.766 1.465 1.127.162.117.324.234.489.348.534.368 1.082.717 1.642 1.048.122.072.245.142.368.212a27.44 27.44 0 0 0 1.88.98l.142.064a27.252 27.252 0 0 0 6.651 2.105l.184.033c.724.125 1.456.225 2.197.292.09.008.18.013.271.021.738.061 1.484.1 2.24.1.749 0 1.488-.039 2.222-.098l.279-.021a27.808 27.808 0 0 0 2.178-.287l.187-.034a27.251 27.251 0 0 0 6.557-2.055c.076-.035.153-.068.229-.104a27.639 27.639 0 0 0 2.25-1.189 27.514 27.514 0 0 0 1.581-1c.185-.126.366-.259.549-.391.439-.316.87-.642 1.289-.983.093-.075.193-.14.284-.217l.915-.764-.027-.023C51.523 42.802 55 35.55 55 27.5zm-53 0C2 13.439 13.439 2 27.5 2S53 13.439 53 27.5c0 7.577-3.325 14.389-8.589 19.063a7.494 7.494 0 0 0-.893-.537l-8.467-4.233a2.217 2.217 0 0 1-1.232-1.993v-2.957c.196-.242.403-.516.617-.817a20.378 20.378 0 0 0 2.616-5.123 3.63 3.63 0 0 0 2.085-3.289v-3.545c0-.867-.318-1.708-.887-2.369v-4.667c.052-.519.236-3.448-1.883-5.864C34.524 9.065 31.541 8 27.5 8s-7.024 1.065-8.867 3.168c-2.119 2.416-1.935 5.345-1.883 5.864v4.667a3.644 3.644 0 0 0-.887 2.369v3.545c0 1.101.494 2.128 1.34 2.821.81 3.173 2.477 5.575 3.093 6.389v2.894a2.23 2.23 0 0 1-1.162 1.958l-7.907 4.313a7.227 7.227 0 0 0-.752.476C5.276 41.792 2 35.022 2 27.5zm40.459 20.632c-.35.254-.706.5-1.067.735-.166.108-.331.216-.5.321-.472.292-.952.57-1.442.83-.108.057-.217.111-.326.167a25.481 25.481 0 0 1-3.488 1.476l-.127.043c-.627.208-1.262.393-1.904.552l-.006.001a25.59 25.59 0 0 1-1.964.402l-.054.01c-.621.101-1.247.174-1.875.229-.111.01-.222.017-.334.025-.621.047-1.245.077-1.872.077a25.43 25.43 0 0 1-1.895-.078c-.109-.008-.218-.015-.326-.025a25.862 25.862 0 0 1-1.89-.233l-.084-.015a25.405 25.405 0 0 1-3.89-.971l-.118-.04a25.86 25.86 0 0 1-1.862-.713l-.013-.006a26.094 26.094 0 0 1-1.705-.816c-.073-.038-.147-.074-.219-.113a25.7 25.7 0 0 1-1.939-1.155 25.417 25.417 0 0 1-1.338-.933l-.133-.104.096-.054 7.907-4.313a4.229 4.229 0 0 0 2.205-3.714l-.001-3.602-.23-.278c-.022-.025-2.184-2.655-3.001-6.216l-.091-.396-.341-.221a1.657 1.657 0 0 1-.769-1.392v-3.545c0-.465.197-.898.557-1.223l.33-.298v-5.57l-.009-.131c-.003-.024-.298-2.429 1.396-4.36C21.583 10.837 24.061 10 27.5 10c3.426 0 5.896.83 7.346 2.466 1.692 1.911 1.415 4.361 1.413 4.381l-.009 5.701.33.298c.359.324.557.758.557 1.223v3.545a1.67 1.67 0 0 1-1.181 1.575l-.497.153-.16.495a18.5 18.5 0 0 1-2.496 5.032c-.262.37-.517.698-.736.949l-.248.283V39.8c0 1.612.896 3.062 2.338 3.782l8.467 4.233.16.083c-.107.081-.217.156-.325.234z"/></symbol><symbol viewBox="0 0 17.969 10" id="vk"><path class="bbcls-1" d="M15.47 6.36a23.834 23.834 0 0 1 1.761 1.75 5.229 5.229 0 0 1 .632.89.64.64 0 0 1-.4 1h-2.619a2.04 2.04 0 0 1-1.668-.67c-.362-.36-.7-.75-1.047-1.13a2.818 2.818 0 0 0-.471-.41.549.549 0 0 0-.872.21 2.711 2.711 0 0 0-.277 1.2.692.692 0 0 1-.833.8 6.862 6.862 0 0 1-3.748-.79 8.2 8.2 0 0 1-2.521-2.33A30.912 30.912 0 0 1 .088 1.06C-.122.6.032.35.547.34Q1.828.325 3.11.34a.754.754 0 0 1 .711.53 15.663 15.663 0 0 0 1.738 3.17 2.839 2.839 0 0 0 .657.71.4.4 0 0 0 .678-.2 2.18 2.18 0 0 0 .15-.66 9.759 9.759 0 0 0-.041-2.33.973.973 0 0 0-.841-.89C5.911.62 5.948.53 6.07.39a.956.956 0 0 1 .8-.4h2.96a.7.7 0 0 1 .633.76v3.24a.947.947 0 0 0 .417.83.6.6 0 0 0 .592-.29 10.168 10.168 0 0 0 1.667-2.52c.2-.4.372-.81.539-1.23a.647.647 0 0 1 .669-.45H17.2a2.089 2.089 0 0 1 .252.02.489.489 0 0 1 .463.75 7.044 7.044 0 0 1-1.133 1.93c-.474.65-.983 1.27-1.454 1.92a.87.87 0 0 0 .139 1.41zm0 0"/></symbol></svg>