<svg xmlns="http://www.w3.org/2000/svg" xmlns:xlink="http://www.w3.org/1999/xlink" preserveAspectRatio="xMidYMid" width="66" height="30" viewBox="0 0 66 30">
  <path d="M64.593,15.974 L62.205,12.666 L62.205,15.974 L60.749,15.974 L60.749,10.256 L62.247,10.256 L64.533,13.402 L64.533,10.256 L65.998,10.256 L65.998,15.974 L64.593,15.974 ZM56.191,16.078 C54.463,16.078 53.167,14.860 53.167,13.120 C53.167,11.379 54.463,10.162 56.191,10.162 C57.918,10.162 59.205,11.379 59.205,13.120 C59.205,14.860 57.918,16.078 56.191,16.078 ZM56.191,11.466 C55.251,11.466 54.649,12.185 54.649,13.120 C54.649,14.045 55.251,14.774 56.191,14.774 C57.121,14.774 57.723,14.045 57.723,13.120 C57.723,12.185 57.121,11.466 56.191,11.466 ZM50.167,12.254 L48.736,15.974 L48.093,15.974 L46.670,12.254 L46.670,15.974 L45.214,15.974 L45.214,10.256 L47.237,10.256 L48.414,13.359 L49.600,10.256 L51.624,10.256 L51.624,15.974 L50.167,15.974 L50.167,12.254 ZM50.049,6.258 L48.592,6.258 L48.592,1.826 L47.009,1.826 L47.009,0.540 L51.624,0.540 L51.624,1.826 L50.049,1.826 L50.049,6.258 ZM43.927,6.258 L42.979,4.337 L42.233,4.337 L42.233,6.258 L40.778,6.258 L40.778,0.540 L43.606,0.540 C44.859,0.540 45.570,1.380 45.570,2.442 C45.570,3.437 44.968,3.968 44.444,4.158 L45.595,6.258 L43.927,6.258 ZM43.385,1.826 L42.233,1.826 L42.233,3.050 L43.385,3.050 C43.766,3.050 44.088,2.837 44.088,2.435 C44.088,2.049 43.766,1.826 43.385,1.826 ZM37.517,5.435 L35.290,5.435 L35.010,6.258 L33.359,6.258 L35.485,0.540 L37.314,0.540 L39.447,6.258 L37.796,6.258 L37.517,5.435 ZM36.399,1.996 L35.679,4.149 L37.119,4.149 L36.399,1.996 ZM14.748,29.997 L4.332,29.997 C2.029,29.997 0.149,28.185 -0.004,25.887 L-0.004,14.965 C-0.004,14.731 0.002,14.491 0.013,14.256 C0.414,6.347 6.912,-0.004 14.821,-0.004 L25.237,-0.004 C27.540,-0.004 29.420,1.808 29.572,4.106 L29.572,14.965 C29.572,15.223 29.566,15.481 29.556,15.738 C29.154,23.647 22.656,29.997 14.748,29.997 ZM27.314,4.196 C27.211,3.118 26.310,2.283 25.237,2.283 L14.821,2.283 C8.126,2.283 2.612,7.594 2.269,14.374 C2.259,14.566 2.254,14.768 2.254,14.965 L2.254,25.797 C2.358,26.876 3.258,27.711 4.332,27.711 L14.748,27.711 C21.443,27.711 26.957,22.400 27.300,15.620 C27.309,15.412 27.314,15.189 27.314,14.965 L27.314,4.196 ZM35.417,14.689 L37.686,14.689 L37.686,15.974 L33.961,15.974 L33.961,10.256 L35.417,10.256 L35.417,14.689 ZM43.495,11.542 L40.811,11.542 L40.811,12.434 L43.436,12.434 L43.436,13.720 L40.811,13.720 L40.811,14.689 L43.495,14.689 L43.495,15.974 L39.355,15.974 L39.355,10.256 L43.495,10.256 L43.495,11.542 Z" class="cls-1"/>
</svg>
