<svg version="1.1" id="Layer_1" xmlns="http://www.w3.org/2000/svg" xmlns:xlink="http://www.w3.org/1999/xlink" x="0px" y="0px"
	 viewBox="-44.999 145.002 503.989 503.997" style="enable-background:new -44.999 145.002 503.989 503.997;" xml:space="preserve">
<path d="M256.842,648.999c9.835,0,18.531-5.984,22.153-15.244l178.309-456.022c3.5-8.954,1.469-18.757-5.302-25.584
	c-0.02-0.02-0.04-0.041-0.061-0.063c-0.001-0.001-0.003-0.003-0.004-0.004l-0.044-0.041l-0.043-0.043
	c-4.55-4.512-10.488-6.997-16.72-6.997c-3.003,0-5.986,0.571-8.867,1.698L-29.754,325.006c-10.33,4.038-16.384,14.152-15.065,25.166
	c1.322,11.013,9.595,19.408,20.586,20.889l222.877,30.058c2.2,0.301,3.939,2.042,4.237,4.235l30.058,222.878
	c1.482,10.993,9.877,19.266,20.89,20.586C254.821,648.939,255.835,648.999,256.842,648.999z M206.884,383.673l-2.065-0.599
	c-6.303-1.003-150.462-20.561-226.508-30.857c-3.422-0.465-4.11-3.167-4.247-4.308c-0.137-1.15-0.105-3.946,3.119-5.196
	l426.643-166.823l17.798-6.959l-13.513,13.513L208.555,382.001L206.884,383.673z M251.784,625.682
	c-10.295-76.036-29.854-220.195-30.856-226.498l-0.598-2.065l1.671-1.671l199.555-199.556l13.513-13.513l-6.959,17.798
	L261.283,626.83c-1.07,2.747-3.232,3.155-4.427,3.155c-0.248,0-0.501-0.016-0.774-0.05
	C254.952,629.801,252.24,629.114,251.784,625.682z"/>
</svg>
