<svg version="1.1" id="Capa_1" xmlns="http://www.w3.org/2000/svg" xmlns:xlink="http://www.w3.org/1999/xlink" x="0px" y="0px"
	 width="54.468px" height="54.467px" viewBox="0 0 54.468 54.467" style="enable-background:new 0 0 54.468 54.467;"
	 xml:space="preserve">
			<path d="M29.88,4.963c-13.558,0-24.588,11.049-24.588,24.63c0,13.579,11.03,24.629,24.588,24.629
				c13.559,0,24.588-11.05,24.588-24.629C54.468,16.013,43.438,4.963,29.88,4.963z M29.88,51.736
				c-12.189,0-22.106-9.934-22.106-22.144c0-12.209,9.917-22.144,22.106-22.144c12.189,0,22.106,9.934,22.106,22.144
				C51.986,41.803,42.069,51.736,29.88,51.736z M43.436,30.785H31.146V16.016c0-0.681-0.549-1.231-1.229-1.231
				c-0.679,0-1.229,0.551-1.229,1.231v16.001c0,0.68,0.55,1.229,1.229,1.229h13.518c0.68,0,1.229-0.551,1.229-1.229
				C44.664,31.335,44.114,30.785,43.436,30.785z M15.703,2.588c0.611-0.293,0.871-1.028,0.578-1.642
				c-0.295-0.615-1.029-0.875-1.639-0.579C7.898,3.603,2.86,9.292,0.076,16.818c-0.234,0.637,0.09,1.346,0.726,1.582
				c0.142,0.053,0.285,0.076,0.427,0.076c0.499,0,0.97-0.308,1.152-0.803C4.939,10.758,9.545,5.541,15.703,2.588z"/>
</svg>
