<svg xmlns="http://www.w3.org/2000/svg" width="10" height="12" viewBox="0 0 10 12">
  <path id="enter.svg" class="cls-1" d="M1480,43.389c1.85,0,2.51-1.778,2.69-3.239,0.21-1.8-.67-3.153-2.69-3.153s-2.9,1.354-2.69,3.153C1477.49,41.61,1478.15,43.389,1480,43.389Zm5,4.234a12.063,12.063,0,0,0-.19-1.7,3.382,3.382,0,0,0-.9-2.107,5.3,5.3,0,0,0-1.22-.491,4.686,4.686,0,0,1-.54-0.234,3.015,3.015,0,0,1-4.3,0,4.686,4.686,0,0,1-.54.234,5.3,5.3,0,0,0-1.22.491,3.382,3.382,0,0,0-.9,2.107,12.063,12.063,0,0,0-.19,1.7c-0.02.438,0.21,0.5,0.59,0.633a11.677,11.677,0,0,0,1.47.389,12.433,12.433,0,0,0,5.88,0,11.677,11.677,0,0,0,1.47-.389C1484.79,48.123,1485.01,48.061,1485,47.623Z" transform="translate(-1475 -37)"/>
</svg>
