<svg xmlns="http://www.w3.org/2000/svg" width="20" height="20" viewBox="0 0 20 20">
  <path id="instagram.svg" class="cls-1" d="M296,6169.8c2.67,0,2.987.01,4.041,0.06a5.364,5.364,0,0,1,1.856.34,3.319,3.319,0,0,1,1.9,1.9,5.511,5.511,0,0,1,.344,1.85c0.048,1.06.058,1.38,0.058,4.05s-0.01,2.98-.058,4.04a5.511,5.511,0,0,1-.344,1.85,3.319,3.319,0,0,1-1.9,1.9,5.364,5.364,0,0,1-1.856.34c-1.054.05-1.371,0.06-4.041,0.06s-2.986-.01-4.04-0.06a5.373,5.373,0,0,1-1.858-.34,3.321,3.321,0,0,1-1.9-1.9,5.511,5.511,0,0,1-.344-1.85c-0.048-1.06-.058-1.38-0.058-4.04s0.01-2.99.058-4.05a5.511,5.511,0,0,1,.344-1.85,3.321,3.321,0,0,1,1.9-1.9,5.373,5.373,0,0,1,1.858-.34c1.054-.05,1.371-0.06,4.04-0.06m0-1.81c-2.716,0-3.056.02-4.123,0.06a7.284,7.284,0,0,0-2.427.47,4.885,4.885,0,0,0-1.771,1.15,5,5,0,0,0-1.154,1.77,7.419,7.419,0,0,0-.465,2.43c-0.048,1.07-.06,1.41-0.06,4.13s0.012,3.05.06,4.12a7.419,7.419,0,0,0,.465,2.43,5.1,5.1,0,0,0,2.925,2.92,7.284,7.284,0,0,0,2.427.47c1.067,0.04,1.407.05,4.123,0.05s3.056-.01,4.124-0.05a7.3,7.3,0,0,0,2.427-.47,5.1,5.1,0,0,0,2.924-2.92,7.419,7.419,0,0,0,.465-2.43c0.049-1.07.06-1.41,0.06-4.12s-0.011-3.06-.06-4.13a7.419,7.419,0,0,0-.465-2.43,5.015,5.015,0,0,0-1.153-1.77,4.9,4.9,0,0,0-1.771-1.15,7.3,7.3,0,0,0-2.427-.47c-1.068-.04-1.408-0.06-4.124-0.06h0Zm0,4.87a5.135,5.135,0,1,0,5.135,5.14A5.137,5.137,0,0,0,296,6172.86Zm0,8.47a3.335,3.335,0,1,1,3.333-3.33A3.331,3.331,0,0,1,296,6181.33Zm6.538-8.67a1.2,1.2,0,1,1-1.2-1.2A1.2,1.2,0,0,1,302.537,6172.66Z" transform="translate(-286 -6168)"/>
</svg>
