<svg version="1.1" xmlns="http://www.w3.org/2000/svg" xmlns:xlink="http://www.w3.org/1999/xlink" x="0px" y="0px"
	 viewBox="-565.902 712.844 40.226 80.549" style="enable-background:new -565.902 712.844 40.226 80.549;" xml:space="preserve">
<path d="M-525.678,740.268c-0.94,3.079-1.322,6.49-2.922,9.176c-5.664,9.507-3.283,19.945-4.133,30.015
	c-0.315,3.735-0.773,7.524-1.818,11.098c-0.374,1.279-2.672,2.836-4.091,2.836c-11.641-0.001-18.602-4.898-22.257-15.523
	c-4.438-12.901-5.776-26.469-4.595-39.898c0.477-5.425,4.845-10.584,7.76-15.682c1.16-2.029,3.344-3.443,4.77-5.354
	c3.116-4.18,9.712-5.498,13.692-2.348C-531.09,721.062-525.559,728.948-525.678,740.268z"/>
</svg>
