<svg version="1.1" xmlns="http://www.w3.org/2000/svg" xmlns:xlink="http://www.w3.org/1999/xlink" x="0px" y="0px"
	 viewBox="-233.902 254.391 120.496 277.721" style="enable-background:new -233.902 254.391 120.496 277.721;"
	 xml:space="preserve">
<path d="M-228.52,428.479c6.995-3.435,13.922-7.019,21.014-10.24c3.436-1.56,5.232-3.48,4.95-7.521
	c-1.064-15.266-2.098-30.539-2.757-45.826c-0.917-21.288-1.912-42.674,4.814-63.335c3.439-10.563,9.479-19.389,20.095-24.264
	c1.08-0.496,2.178-1.616,2.634-2.71c8.089-19.439,25.186-23.579,43.316-17.76c6.781,2.177,13.729,4.396,18.246,10.572
	c0.963,1.317,2.227,2.847,2.287,4.322c0.366,9.034,0.711,18.092,0.385,27.117c-0.08,2.229-2.787,4.303-4.07,6.571
	c-0.839,1.483-2.181,3.49-1.758,4.742c2.097,6.202,0.179,11.983-1.898,17.452c-2.463,6.486-6.2,12.476-9.081,18.819
	c-1.67,3.676-2.723,7.63-4.091,11.446c-0.572,1.596-1.24,3.158-2.368,6.009c-1.043-2.275-1.794-3.19-1.85-4.146
	c-0.477-8.258-0.608-16.541-1.282-24.78c-0.63-7.704-1.451-15.427-2.851-23.02c-0.899-4.874-4.622-6.747-9.691-6.536
	c-4.607,0.191-9.319,0.119-13.847-0.648c-5.472-0.927-8.007-4.354-8.565-9.945c-0.484-4.852-2.493-5.934-6.436-3.219
	c-5.876,4.046-10.317,8.895-11.983,16.4c-5.544,24.982-5.404,50.134-3.403,75.42c0.617,7.793,1.492,15.619,1.318,23.41
	c-0.307,13.778,6.291,22.099,18.823,26.648c2.9,1.053,5.479,2.99,7.846,5.198c-9.486-0.327-16.994-5.352-25.67-10.742
	c0,5.108-0.238,9.044,0.154,12.915c0.109,1.077,1.962,2.591,3.225,2.84c11.954,2.363,16.301,8.388,24.069,19.209
	c-4.837,1.258-10.169-0.702-12.218-5.455c-2.566-5.953-7.533-7.926-12.889-9.742c-5.646,9.663-3.56,18.061,4.695,22.121
	c5.494,2.702,11.663,10.411,12.543,16.143c-3.764-3.353-7.53-6.705-11.292-10.061c-1.492-1.331-2.893-2.781-4.482-3.982
	c-2.512-1.9-5.006-1.06-5.311,1.73c-0.587,5.365-0.888,10.918-0.064,16.199c0.311,1.991,3.916,3.707,6.289,5.084
	c3.833,2.226,7.184,4.646,7.76,9.41c-3.549-2.746-7.023-5.573-10.662-8.168c-1.093-0.779-3.231-1.664-3.856-1.176
	c-1.068,0.834-1.816,2.708-1.835,4.156c-0.144,10.985-0.079,21.972-0.079,32.959c-0.426,0.006-0.852,0.013-1.278,0.019
	c-0.816-7.37-1.632-14.739-2.448-22.109c-0.402-0.231-0.803-0.462-1.205-0.693c-3.443,4.486-6.885,8.973-10.328,13.459
	c-0.203-0.121-0.406-0.242-0.61-0.363c2.156-3.731,4.535-7.355,6.407-11.224c1.914-3.958,3.973-8.035,4.785-12.285
	c0.818-4.281,0.18-8.84,0.18-13.921c-7.339,3.565-14.023,6.812-20.708,10.059c-0.388-0.527-0.777-1.055-1.165-1.582
	c2.878-2.717,5.57-5.676,8.691-8.077c2.614-2.011,5.794-3.269,8.607-5.045c4.324-2.729,6.265-7.375,4.56-12.036
	c-0.395-1.08-3.3-2.256-4.515-1.836c-4.041,1.395-7.874,3.426-11.716,5.355c-2.016,1.012-3.884,2.318-6.176,3.017
	c2.995-5.949,7.745-9.797,13.907-12.116c9.615-3.619,12.017-8.058,9.973-19.619c-10.734,4.628-21.262,9.167-31.789,13.706
	c-0.242-0.375-0.484-0.751-0.726-1.126c2.068-1.52,4.003-3.281,6.229-4.514c6.698-3.71,13.52-7.194,20.273-10.804
	c4.5-2.406,6.93-6.095,6.685-11.31c-0.245-5.234-1.802-6.488-6.891-5.117c-6.251,1.684-12.428,3.641-18.645,5.451
	c-0.614,0.179-1.285,0.161-1.929,0.234C-228.292,429.236-228.406,428.857-228.52,428.479z"/>
</svg>
