<svg version="1.1" xmlns="http://www.w3.org/2000/svg" xmlns:xlink="http://www.w3.org/1999/xlink" x="0px" y="0px"
	 viewBox="-265.988 308.217 63.585 179.038" style="enable-background:new -265.988 308.217 63.585 179.038;" xml:space="preserve">
<path d="M-258.318,471.023c2.146-3.381,3.753-7.32,6.553-10.025c5.489-5.303,7.077-11.352,5.531-19.999
	c-4.42,4.29-8.204,7.962-11.988,11.634c-0.299-0.2-0.599-0.401-0.898-0.601c0.947-1.532,1.712-3.223,2.877-4.566
	c2.837-3.268,6.114-6.185,8.694-9.632c1.191-1.591,1.166-4.093,1.901-7.01c-8.682,1.232-15.705,2.198-20.34,8.768
	c1.708-4.994,4.88-7.62,10.212-8.541c8.463-1.461,11.018-4.991,9.475-12.017c-0.253-1.153-2.288-2.694-3.5-2.694
	c-2.581-0.001-5.247,0.647-7.72,1.491c-2.315,0.791-4.427,2.178-7.056,2.588c4.43-2.659,8.785-5.457,13.314-7.935
	c3.563-1.949,4.853-4.601,4.259-8.612c-2.504-16.891-5.369-33.752-7.109-50.726c-1.14-11.122-2.845-22.743,3.48-33.146
	c3.712-6.105,7.573-12.363,16.363-11.741c5.839,0.413,12.235,4.826,13.698,10.52c1.253,4.878,3.523,8.636,7.516,11.865
	c8.095,6.546,10.838,15.817,10.644,25.758c-0.197,10.122-0.174,20.481-2.36,30.265c-2.136,9.562-7.763,18.032-15.801,24.262
	c-4.35,3.371-10.715,1.243-13.266-4.001c-3.112-6.398-3.243-13.117-2.425-19.983c1.589-13.35,2.981-26.725,4.778-40.046
	c0.726-5.386,2.13-10.702,3.54-15.966c0.988-3.688,1.179-7.806-2.269-9.235c-2.64-1.094-7.041-0.366-9.61,1.234
	c-8.555,5.329-8.499,14.916-8.301,23.144c0.311,12.899,2.655,25.752,4.191,38.618c0.807,6.759,1.445,13.558,2.733,20.228
	c0.508,2.632,2.058,5.55,4.045,7.307c3.953,3.496,8.536,6.279,12.606,9.9c-4.924-2.058-9.848-4.116-14.874-6.217
	c-2.942,11.739,7.459,16.178,12.493,23.37c-0.349,0.335-0.699,0.67-1.048,1.004c-3.281-2.215-6.561-4.429-10.218-6.898
	c-2.103,5.412-1.063,9.417,1.903,13.506c2.566,3.537,6.975,6.81,4.028,12.202c-2.329-3.334-4.656-6.666-6.984-9.998
	c-0.449,0.084-0.897,0.168-1.346,0.253c-1.434,12.635-2.868,25.271-4.302,37.906c-0.624-0.012-1.248-0.023-1.873-0.035
	c-2.569-8.212,1.777-16.894-0.567-25.964c-3.4,3.876-6.398,7.295-9.396,10.714C-257.266,471.655-257.792,471.339-258.318,471.023z"
	/>
</svg>
