<svg version="1.1" xmlns="http://www.w3.org/2000/svg" xmlns:xlink="http://www.w3.org/1999/xlink" x="0px" y="0px"
	 viewBox="-210.902 172.818 181.917 438.587" style="enable-background:new -210.902 172.818 181.917 438.587;"
	 xml:space="preserve">
<path d="M-210.861,247.77c2.892-26.027,15.38-47.832,30.445-68.379c5.151-7.025,13.388-8.086,22.03-4.073
	c4.961,2.304,6.676,7.573,5.54,16.079c-0.226,1.691-0.123,4.115,0.892,5.065c0.817,0.766,3.398,0.2,4.925-0.43
	c12.715-5.249,25.886,3.065,25.795,16.767c-0.038,5.748-0.897,11.589-2.204,17.196c-0.993,4.263-0.526,7.82,1.807,11.314
	c2.352,3.522,4.72,7.034,7.081,10.551c0.504-0.145,1.008-0.291,1.512-0.436c0.131-1.674,0.373-3.347,0.375-5.021
	c0.017-12.999-0.618-26.033,0.14-38.986c0.798-13.642-6.434-16.398-15.561-20.55c-1.771-0.806-3.781-1.086-6.825-1.922
	c1.673-3.03,2.704-6.019,4.658-8.168c2.791-3.069,8.629-1.584,13.462,2.946c1.081,1.013,2.048,2.149,3.303,3.477
	c1.047-1.26,1.946-2.342,3.071-3.695c1.023,0.834,1.978,1.612,3.122,2.545c3.565-6.671,9.046-9.864,17.137-9.125
	c-0.041,4.588-2.25,8.679-5.381,11.122c-11.136,8.692-13.204,20.317-12.653,33.327c0.359,8.482-0.078,16.995-0.014,25.493
	c0.017,2.246,0.568,4.488,2.042,7.095c0.979-1.385,1.98-2.755,2.932-4.158c3.634-5.354,7.468-10.592,10.755-16.152
	c1.074-1.817,1.391-4.654,0.865-6.723c-1.056-4.158-3.29-8.013-4.379-12.166c-1.552-5.921-1.001-11.677,4.134-15.921
	c4.705-3.888,12.388-4.441,17.779-0.92c9.477,6.191,19.055,11.986,29.721,16.098c9.956,3.837,13.92,13.02,14.87,22.632
	c1.043,10.554,0.145,21.301,0.049,31.964c-0.005,0.587-0.404,1.17-1.059,2.945c-0.946-3.284-1.662-5.426-2.176-7.615
	c-1.768-7.522-4.418-14.477-9.644-20.508c-7.591-8.76-16.857-11.149-27.831-9.08c-8.315,1.568-17.007,2.161-22.926,9.447
	c-7.044,8.67-12.328,18.3-13.163,29.575c-0.835,11.271-0.768,22.609-1.055,33.919c-0.04,1.59,0.151,3.185,0.217,4.442
	c5.376-1.569,10.424-4.392,15.356-4.202c10.547,0.407,21.096,2.012,31.524,3.818c7.852,1.36,10.471,7.903,6.825,15.157
	c-6.278,12.489-23.979,18.801-37.024,12.611c-5.562-2.639-10.448-6.703-15.814-10.233c0.25-0.217-0.207-0.002-0.201,0.2
	c0.557,18.921,0.999,37.848,1.8,56.759c0.429,10.129,1.617,20.223,2.224,30.346c0.946,15.791,1.455,31.612,2.632,47.384
	c0.48,6.431,3.18,12.334,9.053,15.864c5.535,3.326,11.382,6.127,16.979,9.355c3.151,1.817,6.074,4.031,8.7,6.723
	c-12.317-2.108-23.393-6.817-33.078-14.764c-0.528,0.256-1.057,0.512-1.585,0.768c0,5.678-0.176,11.368,0.177,17.024
	c0.057,0.922,2.38,2.285,3.774,2.452c15.847,1.896,23.696,13.967,32.643,25.014c-6.852,1.65-13.944-0.884-16.491-6.902
	c-2.923-6.906-8.561-9.87-14.795-12.278c-0.995-0.384-3.61,0.754-3.934,1.71c-3.565,10.537-3.999,20.435,7.83,26.407
	c8.784,4.434,13.619,12.642,18.658,20.509c-0.296,0.333-0.592,0.666-0.888,1c-2.186-1.621-4.491-3.107-6.536-4.89
	c-5.149-4.488-10.114-9.188-15.285-13.649c-2.945-2.54-5.691-1.828-7.01,1.676c-2.686,7.139-1.751,14.428-0.524,21.667
	c0.158,0.934,1.327,1.841,2.23,2.474c1.905,1.336,3.89,2.582,5.939,3.687c5.284,2.849,9.879,6.248,10.79,12.784
	c-4.594-3.567-9.224-7.324-14.05-10.81c-1.462-1.056-4.434-2.381-5.028-1.815c-1.465,1.397-2.683,3.808-2.715,5.831
	c-0.223,13.983-0.118,27.97-0.118,41.957c-0.56,0.012-1.121,0.024-1.681,0.036c-0.897-9.49-1.794-18.98-2.691-28.47
	c-0.513-0.252-1.027-0.504-1.54-0.756c-4.72,6.147-9.441,12.295-14.161,18.442c-0.266-0.172-0.532-0.343-0.798-0.515
	c3.061-5.227,5.61-10.852,9.302-15.588c5.663-7.265,6.309-15.553,6.407-24.065c0.035-3.035-0.801-6.08-1.239-9.121
	c-2.553,1.239-5.093,2.508-7.662,3.712c-6.233,2.92-12.48,5.809-18.721,8.711c-0.479-0.648-0.959-1.297-1.438-1.945
	c3.724-3.52,7.251-7.286,11.24-10.474c2.693-2.152,5.977-3.613,9.106-5.161c6.144-3.041,9.314-7.657,8.907-14.732
	c-0.274-4.755-1.633-6.46-6.074-4.946c-5.295,1.805-10.338,4.409-15.359,6.929c-2.876,1.443-5.49,3.406-8.582,4.667
	c2.588-6.968,8.011-11.082,14.049-14.548c1.575-0.904,3.307-1.641,5.059-2.109c11.718-3.132,13.822-11.454,13.223-21.485
	c-0.166-2.782-1.453-3.705-3.854-2.699c-4.75,1.99-9.381,4.261-14.108,6.307c-8.197,3.549-16.431,7.015-24.649,10.516
	c-0.292-0.447-0.585-0.894-0.877-1.341c2.451-1.873,4.714-4.087,7.386-5.558c9.038-4.977,18.275-9.591,27.33-14.539
	c7.097-3.878,9.725-9.567,8.283-17.001c-0.973-5.014-2.271-5.978-7.628-4.63c-4.83,1.216-9.511,3.01-14.302,4.397
	c-4.596,1.331-9.249,2.469-13.877,3.691c-0.201-0.482-0.401-0.964-0.602-1.445c8.78-4.399,17.353-9.301,26.412-13.022
	c6.229-2.559,8.834-6.095,8.267-12.734c-1.627-19.024-3.005-38.069-4.46-57.107c-0.785-10.272-1.717-20.538-2.231-30.824
	c-0.43-8.593-0.332-17.212-0.515-25.819c-0.023-1.099-0.334-2.193-1.621-3.688c-0.821,1.603-1.708,3.176-2.452,4.814
	c-6.709,14.775-24.761,21.378-38.466,13.808c-2.839-1.568-5.376-3.951-7.546-6.406c-4.19-4.739-3.514-9.329,1.512-13.214
	c4.481-3.463,8.958-6.931,13.45-10.379c10.925-8.384,22.479-14.985,37.024-12.408c0-12.333-0.083-24.107,0.025-35.88
	c0.093-10.127-3.755-19.139-7.606-28.164c-1.86-4.359-4.017-4.686-8.217-2.765c-8.126,3.717-16.377,7.213-24.776,10.249
	c-2.423,0.876-5.527-0.22-8.321-0.267c-12.273-0.209-24.659-1.399-36.114,4.845c-1.636,0.892-3.838,0.795-5.792,1.039
	c-3.001,0.374-4.782-0.64-4.795-4.042C-210.792,254.453-210.984,248.875-210.861,247.77z"/>
</svg>
