<svg version="1.1" xmlns="http://www.w3.org/2000/svg" xmlns:xlink="http://www.w3.org/1999/xlink" x="0px" y="0px"
	 viewBox="-214.99 208.955 172.99 368.056" style="enable-background:new -214.99 208.955 172.99 368.056;" xml:space="preserve">
<path d="M-42,282c-0.626,4.725-1.252,9.451-2.044,15.426c-4.051-1.416-8.044-2.332-11.56-4.163
	c-4.261-2.218-8.159-5.152-12.143-7.879c-6.45-4.415-12.733-8.705-21.062-9.418c-6.996-0.599-12.743-4.421-16.493-12.388
	c-10.654,24.023-5.282,77.672-7.803,102.544c-2.072,20.441-1.601,40.83,0.191,61.246c0.741,8.447,1.649,16.93,1.556,25.387
	c-0.145,13.237,6.506,20.992,18.266,25.505c3.056,1.173,5.84,3.054,8.378,5.322c-9.522-0.173-16.944-5.365-25.683-10.656
	c0,5.049-0.237,8.973,0.151,12.836c0.109,1.087,1.945,2.687,3.167,2.871c11.787,1.775,17.829,10.631,24.443,19.096
	c-5.007,1.437-10.454-0.518-12.489-5.248c-2.559-5.947-7.528-7.937-12.841-9.823c-5.595,8.882-3.777,17.911,4.11,21.848
	c5.92,2.955,11.966,10.35,13.068,16.417c-3.753-3.327-7.508-6.652-11.257-9.984c-1.494-1.328-2.902-2.765-4.476-3.989
	c-2.467-1.919-5.018-1.206-5.344,1.601c-0.623,5.356-0.919,10.909-0.116,16.192c0.304,1.995,3.88,3.718,6.229,5.124
	c3.785,2.265,7.273,4.596,7.807,9.429c-3.49-2.7-6.944-5.503-10.555-8.087c-1.106-0.791-3.2-1.748-3.857-1.272
	c-1.084,0.786-1.887,2.669-1.907,4.102c-0.15,10.983-0.083,21.968-0.083,32.953c-0.426,0.006-0.852,0.013-1.278,0.019
	c-0.815-7.322-1.63-14.643-2.635-23.666c-4.342,5.465-7.85,9.88-11.358,14.294c-0.185-0.097-0.371-0.194-0.556-0.291
	c2.126-3.679,4.495-7.243,6.311-11.069c1.953-4.116,4.004-8.359,4.867-12.77c0.825-4.214,0.178-8.716,0.178-13.595
	c-7.501,3.675-14.083,6.901-20.666,10.126c-0.399-0.512-0.799-1.023-1.198-1.535c2.831-2.716,5.478-5.667,8.551-8.073
	c2.463-1.928,5.428-3.224,8.198-4.749c3.694-2.033,5.499-4.939,5.347-9.334c-0.192-5.536-1.09-6.64-6.127-4.568
	c-5.623,2.313-10.942,5.364-16.696,7.784c3.091-5.383,7.475-9.326,13.473-11.594c10.289-3.891,12.452-7.696,10.631-19.884
	c-10.848,4.661-21.455,9.218-32.062,13.774c-0.229-0.396-0.458-0.793-0.687-1.189c2.219-1.571,4.317-3.363,6.681-4.672
	c6.551-3.628,13.206-7.07,19.834-10.558c4.145-2.181,6.637-5.483,6.847-10.234c0.275-6.223-1.687-7.745-7.712-6.033
	c-5.907,1.679-11.789,3.45-17.688,5.159c-0.622,0.18-1.287,0.211-2.409-0.671c5.735-2.898,11.244-6.45,17.263-8.525
	c7.315-2.522,9.187-6.952,8.737-14.249c-1.35-21.907-2.213-43.846-3.048-65.781c-0.234-6.144,3.605-54.002,3.565-56.608
	c-0.213-14.156-0.275-28.317-0.725-42.466c-0.339-10.684-6.071-19.493-11.111-28.408c-0.581-1.027-4.057-1.475-5.506-0.774
	c-7.031,3.398-14.119,6.834-20.643,11.09c-10.783,7.034-22.002,10.336-34.985,8.101c-6.556-1.128-13.463-1.968-19.638,2.768
	c-2.787,2.137-4.845,0.283-4.322-3.567c1.251-9.227,4.429-17.525,10.38-24.967c3.974-4.97,6.878-10.841,9.942-16.483
	c7.146-13.158,16.282-23.707,32.484-24.759c10.804-0.702,15.547,3.177,16.557,13.854c0.438,4.623,2.002,6.508,6.424,5.4
	c8.243-2.066,16.041,10.198,14.769,16.825c-1.643,8.561,0.08,14.213,6.334,22.447c-0.311-3.495-0.911-6.149-0.62-8.701
	c0.143-1.259,1.93-2.331,2.973-3.488c1.059,1.359,2.711,2.596,3.021,4.108c0.354,1.727-0.487,3.698-1.034,6.87
	c5.498-4.528,5.452-9.523,5.482-14.409c0.021-3.486-0.449-6.976-0.409-10.461c0.123-10.687,8.47-18.778,19.063-18.175
	c3.843,0.219,6.988-0.492,9.266-3.555c10.865-14.607,23.147-8.118,29.783,3.857c4.915,8.87,8.089,18.202,7.661,28.539
	c-0.08,1.936,0.537,3.902,0.833,5.853C-42,266-42,274-42,282z"/>
</svg>
