<svg xmlns="http://www.w3.org/2000/svg" width="21" height="21" viewBox="0 0 21 21">
  <path id="quote.svg" class="cls-1" fill-rule="evenodd" fill="#ddd" d="M1006.87,780.687v1.772h4.23V792H1002v-9.539h0v-1.772c0-3.6.99-6.273,2.94-7.946a7.527,7.527,0,0,1,5.07-1.743v5.11C1008.91,776.108,1006.87,776.108,1006.87,780.687Zm15.04-4.579V771a7.545,7.545,0,0,0-5.07,1.743c-1.95,1.673-2.94,4.346-2.94,7.946v1.772h0V792h9.1v-9.539h-4.22v-1.772C1018.78,776.108,1020.81,776.108,1021.91,776.108Z" transform="translate(-1002 -771)"/>
</svg>
