<svg xmlns="http://www.w3.org/2000/svg" width="17.969" height="10" viewBox="0 0 17.969 10">
  <path id="vk.svg" class="cls-1" d="M402.47,6179.36a23.834,23.834,0,0,1,1.761,1.75,5.229,5.229,0,0,1,.632.89,0.64,0.64,0,0,1-.4,1h-2.619a2.04,2.04,0,0,1-1.668-.67c-0.362-.36-0.7-0.75-1.047-1.13a2.818,2.818,0,0,0-.471-0.41,0.549,0.549,0,0,0-.872.21,2.711,2.711,0,0,0-.277,1.2,0.692,0.692,0,0,1-.833.8,6.862,6.862,0,0,1-3.748-.79,8.2,8.2,0,0,1-2.521-2.33,30.912,30.912,0,0,1-3.319-5.82c-0.21-.46-0.056-0.71.459-0.72q1.281-.015,2.563,0a0.754,0.754,0,0,1,.711.53,15.663,15.663,0,0,0,1.738,3.17,2.839,2.839,0,0,0,.657.71,0.4,0.4,0,0,0,.678-0.2,2.18,2.18,0,0,0,.15-0.66,9.759,9.759,0,0,0-.041-2.33,0.973,0.973,0,0,0-.841-0.89c-0.251-.05-0.214-0.14-0.092-0.28a0.956,0.956,0,0,1,.8-0.4h2.96a0.7,0.7,0,0,1,.633.76l0,3.24a0.947,0.947,0,0,0,.417.83,0.6,0.6,0,0,0,.592-0.29,10.168,10.168,0,0,0,1.667-2.52c0.2-.4.372-0.81,0.539-1.23a0.647,0.647,0,0,1,.669-0.45H404.2a2.089,2.089,0,0,1,.252.02,0.489,0.489,0,0,1,.463.75,7.044,7.044,0,0,1-1.133,1.93c-0.474.65-.983,1.27-1.454,1.92a0.87,0.87,0,0,0,.139,1.41h0Zm0,0" transform="translate(-387 -6173)"/>
</svg>
